<?xml version="1.0" encoding="UTF-8" ?>
<!DOCTYPE svg PUBLIC "-//W3C//DTD SVG 1.1//EN" "http://www.w3.org/Graphics/SVG/1.1/DTD/svg11.dtd">
<svg width="1025pt" height="576pt" viewBox="0 0 1025 576" version="1.1" xmlns="http://www.w3.org/2000/svg">
<g id="#a2b5bbff">
<path fill="#a2b5bb" opacity="1.00" d=" M 798.91 71.74 C 805.00 69.31 811.61 68.78 818.09 68.29 C 824.52 67.69 830.68 69.99 836.97 70.87 C 843.50 72.34 850.00 74.60 855.48 78.53 C 861.19 82.34 867.44 85.73 871.64 91.33 C 873.14 93.38 875.40 95.10 875.92 97.71 C 876.66 103.38 878.98 108.82 878.83 114.61 C 873.46 113.98 868.39 112.06 863.30 110.36 C 861.12 109.55 859.14 108.29 857.42 106.74 C 856.31 105.42 855.32 103.98 854.00 102.86 C 850.79 102.18 846.63 103.84 844.39 100.64 C 841.61 97.97 842.58 93.94 843.06 90.58 C 840.29 88.42 837.78 85.60 834.33 84.55 C 832.06 84.61 831.37 87.43 830.09 88.90 C 828.49 85.15 827.21 81.19 824.76 77.88 C 817.63 76.98 812.49 83.23 805.82 84.40 C 800.36 85.41 794.88 86.35 789.49 87.70 C 793.26 83.69 799.15 83.56 803.60 80.66 C 806.21 79.24 808.03 76.82 809.54 74.30 C 806.07 73.14 802.54 72.17 798.91 71.74 M 860.98 97.77 C 864.04 101.55 866.80 106.17 871.93 107.30 C 876.25 102.41 872.62 95.26 868.55 91.46 C 864.84 91.33 861.80 94.28 860.98 97.77 Z" />
</g>
<g id="#b9cad1ff">
<path fill="#b9cad1" opacity="1.00" d=" M 773.15 87.16 C 780.53 80.36 789.10 74.35 798.91 71.74 C 802.54 72.17 806.07 73.14 809.54 74.30 C 808.03 76.82 806.21 79.24 803.60 80.66 C 799.15 83.56 793.26 83.69 789.49 87.70 C 788.87 87.89 787.65 88.28 787.03 88.48 C 780.35 90.77 776.66 97.31 770.84 100.91 C 769.14 102.01 767.03 101.74 765.11 101.83 C 762.13 105.74 760.11 110.26 758.73 114.96 C 757.36 119.11 755.95 123.25 754.93 127.50 C 753.61 134.13 754.40 141.07 756.60 147.43 C 757.35 149.79 759.36 151.35 761.02 153.08 C 764.52 157.40 765.29 163.52 769.80 167.07 C 773.20 173.99 780.84 176.83 786.16 181.96 C 787.78 181.41 789.40 180.86 791.03 180.31 C 791.60 181.14 792.18 181.96 792.79 182.78 C 793.41 183.65 794.04 184.52 794.68 185.39 C 794.35 185.61 793.69 186.04 793.36 186.26 C 798.19 187.51 801.23 191.53 805.06 194.33 C 808.94 194.32 812.56 192.35 816.49 192.53 C 819.15 192.32 823.00 193.29 824.03 189.91 C 826.29 186.09 821.02 183.97 818.85 181.70 C 819.22 181.73 819.98 181.79 820.35 181.82 C 822.52 182.54 824.65 183.47 826.93 183.84 C 830.01 181.84 831.53 178.12 834.63 176.20 C 838.01 175.48 841.56 175.05 845.01 175.36 C 848.53 177.31 850.71 181.00 854.23 182.96 C 860.69 183.43 864.64 177.54 867.74 172.80 C 870.04 169.17 873.40 166.41 875.99 163.01 C 878.46 158.81 877.19 153.50 879.26 149.16 C 881.07 147.50 883.74 147.40 886.01 146.73 C 886.54 153.94 882.98 160.33 879.06 166.06 C 880.04 166.92 881.01 167.81 881.98 168.71 C 875.61 181.48 864.79 191.83 852.07 198.18 C 835.37 206.26 815.32 207.76 797.88 201.10 C 773.00 192.47 754.53 168.21 752.66 141.96 C 751.06 121.90 758.33 100.99 773.15 87.16 Z" />
</g>
<g id="#8da1aaff">
<path fill="#8da1aa" opacity="1.00" d=" M 805.82 84.40 C 812.49 83.23 817.63 76.98 824.76 77.88 C 827.21 81.19 828.49 85.15 830.09 88.90 C 831.37 87.43 832.06 84.61 834.33 84.55 C 837.78 85.60 840.29 88.42 843.06 90.58 C 842.58 93.94 841.61 97.97 844.39 100.64 C 846.63 103.84 850.79 102.18 854.00 102.86 C 855.32 103.98 856.31 105.42 857.42 106.74 C 856.66 106.14 855.90 105.54 855.14 104.95 C 853.04 106.92 851.09 110.79 847.64 109.58 C 844.98 106.70 843.97 102.65 841.06 99.97 C 838.71 97.84 836.08 96.04 833.61 94.05 C 832.10 95.28 830.56 96.47 829.04 97.68 C 827.95 97.52 826.87 97.36 825.80 97.22 C 824.89 93.62 824.00 90.02 823.20 86.40 C 820.76 86.03 818.32 85.66 815.89 85.32 C 815.60 87.98 814.98 90.60 813.85 93.03 C 809.93 90.71 805.62 88.55 800.92 88.96 C 796.66 88.82 793.84 92.55 790.04 93.73 C 787.45 93.48 787.72 90.32 787.03 88.48 C 787.65 88.28 788.87 87.89 789.49 87.70 C 794.88 86.35 800.36 85.41 805.82 84.40 Z" />
</g>
<g id="#9bb0b8ff">
<path fill="#9bb0b8" opacity="1.00" d=" M 815.89 85.32 C 818.32 85.66 820.76 86.03 823.20 86.40 C 824.00 90.02 824.89 93.62 825.80 97.22 C 823.98 97.42 822.19 97.75 820.40 98.06 C 820.16 100.03 819.89 102.00 819.71 103.98 C 817.74 102.23 815.85 100.40 814.02 98.52 C 812.07 98.44 810.12 98.36 808.18 98.27 C 803.54 95.15 797.56 95.24 792.46 97.06 C 789.46 98.80 787.13 101.48 784.08 103.16 C 782.72 104.24 780.60 104.79 780.12 106.64 C 779.29 109.46 779.04 112.42 778.22 115.25 C 776.35 115.46 774.49 115.66 772.63 115.86 C 772.14 113.64 771.55 111.45 771.06 109.24 C 766.62 110.28 761.87 111.38 758.73 114.96 C 760.11 110.26 762.13 105.74 765.11 101.83 C 767.03 101.74 769.14 102.01 770.84 100.91 C 776.66 97.31 780.35 90.77 787.03 88.48 C 787.72 90.32 787.45 93.48 790.04 93.73 C 793.84 92.55 796.66 88.82 800.92 88.96 C 805.62 88.55 809.93 90.71 813.85 93.03 C 814.98 90.60 815.60 87.98 815.89 85.32 Z" />
</g>
<g id="#78939dff">
<path fill="#78939d" opacity="1.00" d=" M 860.98 97.77 C 861.80 94.28 864.84 91.33 868.55 91.46 C 872.62 95.26 876.25 102.41 871.93 107.30 C 866.80 106.17 864.04 101.55 860.98 97.77 Z" />
</g>
<g id="#6b828eff">
<path fill="#6b828e" opacity="1.00" d=" M 829.04 97.68 C 830.56 96.47 832.10 95.28 833.61 94.05 C 836.08 96.04 838.71 97.84 841.06 99.97 C 843.97 102.65 844.98 106.70 847.64 109.58 C 851.09 110.79 853.04 106.92 855.14 104.95 C 855.90 105.54 856.66 106.14 857.42 106.74 C 859.14 108.29 861.12 109.55 863.30 110.36 C 862.79 114.99 864.68 119.31 866.16 123.59 C 863.91 124.16 861.71 124.87 859.49 125.49 C 859.13 129.79 860.22 134.81 857.17 138.34 C 856.41 137.58 855.71 136.78 855.07 135.95 C 854.81 135.41 854.30 134.35 854.04 133.82 C 850.78 133.06 847.00 132.99 844.53 130.43 C 842.06 128.02 840.27 125.04 838.37 122.19 C 839.22 120.18 839.91 118.11 840.77 116.10 C 838.69 116.68 836.62 117.26 834.56 117.86 C 834.64 121.34 834.96 124.80 835.33 128.25 C 831.84 130.94 827.46 131.37 823.23 131.71 C 820.40 131.73 817.11 134.57 818.39 137.55 C 819.56 140.83 823.49 140.81 826.20 142.02 C 828.09 142.36 826.81 144.79 827.10 146.12 C 826.47 145.95 825.22 145.60 824.60 145.43 C 823.32 145.12 822.04 144.76 820.74 144.77 C 817.40 146.72 814.75 151.55 810.27 149.87 C 807.21 149.36 806.56 146.11 805.92 143.61 C 808.17 142.85 810.32 141.85 812.58 141.11 C 812.24 137.54 811.53 134.02 810.50 130.60 C 815.94 129.73 821.25 126.53 823.15 121.14 C 824.42 115.07 818.94 110.05 819.71 103.98 C 819.89 102.00 820.16 100.03 820.40 98.06 C 822.19 97.75 823.98 97.42 825.80 97.22 C 826.87 97.36 827.95 97.52 829.04 97.68 Z" />
</g>
<g id="#748c97ff">
<path fill="#748c97" opacity="1.00" d=" M 792.46 97.06 C 797.56 95.24 803.54 95.15 808.18 98.27 C 807.38 99.86 806.61 101.45 805.84 103.05 C 807.15 105.08 808.64 107.03 809.52 109.30 C 808.81 112.53 805.68 115.17 806.17 118.59 C 808.27 120.52 811.48 120.39 814.13 121.08 C 813.31 123.64 812.65 126.69 810.00 128.00 C 804.75 130.96 798.93 132.75 793.04 133.91 C 790.31 134.19 788.11 136.56 788.14 139.31 C 788.01 142.93 791.49 145.03 793.72 147.32 C 792.56 147.90 791.43 148.56 790.20 148.91 C 787.40 147.45 785.52 144.82 783.40 142.57 C 781.12 139.89 778.26 137.39 777.42 133.82 C 776.58 130.53 775.91 127.20 775.45 123.84 C 774.83 120.67 777.12 118.02 778.22 115.25 C 779.04 112.42 779.29 109.46 780.12 106.64 C 780.60 104.79 782.72 104.24 784.08 103.16 C 787.13 101.48 789.46 98.80 792.46 97.06 Z" />
</g>
<g id="#89a2abff">
<path fill="#89a2ab" opacity="1.00" d=" M 808.18 98.27 C 810.12 98.36 812.07 98.44 814.02 98.52 C 815.85 100.40 817.74 102.23 819.71 103.98 C 818.94 110.05 824.42 115.07 823.15 121.14 C 821.25 126.53 815.94 129.73 810.50 130.60 C 811.53 134.02 812.24 137.54 812.58 141.11 C 810.32 141.85 808.17 142.85 805.92 143.61 C 806.56 146.11 807.21 149.36 810.27 149.87 C 814.75 151.55 817.40 146.72 820.74 144.77 C 822.04 144.76 823.32 145.12 824.60 145.43 C 821.93 148.05 819.21 150.60 816.42 153.07 C 815.58 153.82 814.74 154.56 813.91 155.30 C 815.67 158.68 817.25 162.14 818.65 165.68 C 814.47 163.06 810.26 160.50 805.90 158.19 C 806.41 156.53 806.92 154.86 807.40 153.18 C 804.03 153.70 800.69 154.34 797.38 155.15 C 796.94 153.92 796.51 152.68 796.12 151.45 C 793.38 151.59 790.66 151.78 787.95 152.03 C 787.70 153.31 787.46 154.60 787.21 155.89 C 786.29 155.42 785.40 154.95 784.50 154.48 C 784.20 155.73 783.89 156.97 783.58 158.21 C 779.46 152.08 780.45 143.83 775.26 138.29 C 771.61 139.41 767.77 139.53 764.10 138.46 C 761.68 144.48 765.99 150.01 769.96 154.11 C 768.53 158.57 770.00 163.12 770.61 167.58 L 769.80 167.07 C 765.29 163.52 764.52 157.40 761.02 153.08 C 759.41 149.49 757.74 145.77 757.51 141.79 C 757.44 137.94 758.31 134.15 758.91 130.36 C 757.57 129.41 756.25 128.45 754.93 127.50 C 755.95 123.25 757.36 119.11 758.73 114.96 C 761.87 111.38 766.62 110.28 771.06 109.24 C 771.55 111.45 772.14 113.64 772.63 115.86 C 774.49 115.66 776.35 115.46 778.22 115.25 C 777.12 118.02 774.83 120.67 775.45 123.84 C 775.91 127.20 776.58 130.53 777.42 133.82 C 778.26 137.39 781.12 139.89 783.40 142.57 C 785.52 144.82 787.40 147.45 790.20 148.91 C 791.43 148.56 792.56 147.90 793.72 147.32 C 791.49 145.03 788.01 142.93 788.14 139.31 C 788.11 136.56 790.31 134.19 793.04 133.91 C 798.93 132.75 804.75 130.96 810.00 128.00 C 812.65 126.69 813.31 123.64 814.13 121.08 C 811.48 120.39 808.27 120.52 806.17 118.59 C 805.68 115.17 808.81 112.53 809.52 109.30 C 808.64 107.03 807.15 105.08 805.84 103.05 C 806.61 101.45 807.38 99.86 808.18 98.27 Z" />
</g>
<g id="#90a8afff">
<path fill="#90a8af" opacity="1.00" d=" M 875.92 97.71 C 879.94 101.51 882.23 106.65 884.49 111.61 C 888.63 121.83 890.69 132.98 889.44 144.00 C 888.62 141.31 887.92 138.07 885.11 136.75 C 882.77 139.05 881.34 142.05 879.65 144.82 C 878.07 141.92 878.24 138.69 879.30 135.65 C 873.80 135.45 868.90 131.23 863.31 133.02 C 865.24 135.34 867.74 137.05 870.03 138.98 C 872.72 141.58 873.81 145.30 874.88 148.78 C 871.75 148.77 869.01 150.24 866.65 152.18 C 864.27 148.84 862.10 145.37 860.21 141.74 C 857.96 141.79 855.72 141.67 853.48 141.75 C 853.38 140.48 853.27 139.21 853.14 137.96 C 853.77 137.28 854.41 136.61 855.07 135.95 C 855.71 136.78 856.41 137.58 857.17 138.34 C 860.22 134.81 859.13 129.79 859.49 125.49 C 861.71 124.87 863.91 124.16 866.16 123.59 C 869.19 125.39 869.99 129.20 872.64 131.38 C 874.44 132.40 876.56 132.59 878.56 133.05 C 879.76 126.95 879.09 120.76 878.83 114.61 C 878.98 108.82 876.66 103.38 875.92 97.71 Z" />
</g>
<g id="#78929cff">
<path fill="#78929c" opacity="1.00" d=" M 863.30 110.36 C 868.39 112.06 873.46 113.98 878.83 114.61 C 879.09 120.76 879.76 126.95 878.56 133.05 C 876.56 132.59 874.44 132.40 872.64 131.38 C 869.99 129.20 869.19 125.39 866.16 123.59 C 864.68 119.31 862.79 114.99 863.30 110.36 Z" />
</g>
<g id="#94afbaff">
<path fill="#94afba" opacity="1.00" d=" M 834.56 117.86 C 836.62 117.26 838.69 116.68 840.77 116.10 C 839.91 118.11 839.22 120.18 838.37 122.19 C 840.27 125.04 842.06 128.02 844.53 130.43 C 847.00 132.99 850.78 133.06 854.04 133.82 C 854.30 134.35 854.81 135.41 855.07 135.95 C 854.41 136.61 853.77 137.28 853.14 137.96 C 851.82 136.98 850.45 136.09 849.07 135.23 C 847.03 139.85 847.70 144.93 847.55 149.82 C 849.37 149.29 851.19 148.75 853.02 148.21 C 855.60 150.80 859.05 153.24 859.66 157.09 C 858.87 161.97 855.50 165.88 852.81 169.86 C 852.17 169.87 850.87 169.91 850.23 169.92 C 850.87 166.52 851.37 163.10 851.61 159.65 C 848.72 162.52 846.12 165.66 843.74 168.96 C 842.40 168.50 841.07 168.03 839.75 167.57 C 837.38 169.86 834.98 172.14 832.32 174.11 C 831.87 173.27 831.44 172.45 831.00 171.63 C 829.93 171.02 828.80 170.50 827.88 169.70 C 827.18 166.43 827.57 163.04 827.41 159.72 C 826.17 159.85 824.97 159.98 823.76 160.13 C 821.59 157.50 819.11 155.15 816.42 153.07 C 819.21 150.60 821.93 148.05 824.60 145.43 C 825.22 145.60 826.47 145.95 827.10 146.12 C 828.12 146.41 829.15 146.70 830.20 146.99 C 829.70 142.98 828.95 139.01 828.16 135.04 C 831.20 133.70 836.21 132.65 835.33 128.25 C 834.96 124.80 834.64 121.34 834.56 117.86 Z" />
</g>
<g id="#a3b4bbff">
<path fill="#a3b4bb" opacity="1.00" d=" M 754.93 127.50 C 756.25 128.45 757.57 129.41 758.91 130.36 C 758.31 134.15 757.44 137.94 757.51 141.79 C 757.74 145.77 759.41 149.49 761.02 153.08 C 759.36 151.35 757.35 149.79 756.60 147.43 C 754.40 141.07 753.61 134.13 754.93 127.50 Z" />
</g>
<g id="#8aa4b0ff">
<path fill="#8aa4b0" opacity="1.00" d=" M 823.23 131.71 C 827.46 131.37 831.84 130.94 835.33 128.25 C 836.21 132.65 831.20 133.70 828.16 135.04 C 828.95 139.01 829.70 142.98 830.20 146.99 C 829.15 146.70 828.12 146.41 827.10 146.12 C 826.81 144.79 828.09 142.36 826.20 142.02 C 823.49 140.81 819.56 140.83 818.39 137.55 C 817.11 134.57 820.40 131.73 823.23 131.71 Z" />
</g>
<g id="#a4bbc5ff">
<path fill="#a4bbc5" opacity="1.00" d=" M 863.31 133.02 C 868.90 131.23 873.80 135.45 879.30 135.65 C 878.24 138.69 878.07 141.92 879.65 144.82 C 881.34 142.05 882.77 139.05 885.11 136.75 C 887.92 138.07 888.62 141.31 889.44 144.00 C 888.64 152.61 886.02 161.07 881.98 168.71 C 881.01 167.81 880.04 166.92 879.06 166.06 C 882.98 160.33 886.54 153.94 886.01 146.73 C 883.74 147.40 881.07 147.50 879.26 149.16 C 877.19 153.50 878.46 158.81 875.99 163.01 C 873.40 166.41 870.04 169.17 867.74 172.80 C 864.64 177.54 860.69 183.43 854.23 182.96 C 850.71 181.00 848.53 177.31 845.01 175.36 C 841.56 175.05 838.01 175.48 834.63 176.20 C 831.53 178.12 830.01 181.84 826.93 183.84 C 824.65 183.47 822.52 182.54 820.35 181.82 C 822.75 181.32 825.10 180.62 827.46 179.96 C 827.43 179.04 827.41 178.11 827.41 177.20 C 829.11 176.28 830.74 175.23 832.32 174.11 C 834.98 172.14 837.38 169.86 839.75 167.57 C 841.07 168.03 842.40 168.50 843.74 168.96 C 846.12 165.66 848.72 162.52 851.61 159.65 C 851.37 163.10 850.87 166.52 850.23 169.92 C 850.87 169.91 852.17 169.87 852.81 169.86 C 855.50 165.88 858.87 161.97 859.66 157.09 C 859.05 153.24 855.60 150.80 853.02 148.21 C 851.19 148.75 849.37 149.29 847.55 149.82 C 847.70 144.93 847.03 139.85 849.07 135.23 C 850.45 136.09 851.82 136.98 853.14 137.96 C 853.27 139.21 853.38 140.48 853.48 141.75 C 855.72 141.67 857.96 141.79 860.21 141.74 C 862.10 145.37 864.27 148.84 866.65 152.18 C 869.01 150.24 871.75 148.77 874.88 148.78 C 873.81 145.30 872.72 141.58 870.03 138.98 C 867.74 137.05 865.24 135.34 863.31 133.02 Z" />
</g>
<g id="#758e9aff">
<path fill="#758e9a" opacity="1.00" d=" M 769.96 154.11 C 765.99 150.01 761.68 144.48 764.10 138.46 C 767.77 139.53 771.61 139.41 775.26 138.29 C 780.45 143.83 779.46 152.08 783.58 158.21 C 783.89 156.97 784.20 155.73 784.50 154.48 C 785.40 154.95 786.29 155.42 787.21 155.89 C 787.46 154.60 787.70 153.31 787.95 152.03 C 790.66 151.78 793.38 151.59 796.12 151.45 C 796.51 152.68 796.94 153.92 797.38 155.15 C 800.69 154.34 804.03 153.70 807.40 153.18 C 806.92 154.86 806.41 156.53 805.90 158.19 C 810.26 160.50 814.47 163.06 818.65 165.68 C 817.25 162.14 815.67 158.68 813.91 155.30 C 814.74 154.56 815.58 153.82 816.42 153.07 C 819.11 155.15 821.59 157.50 823.76 160.13 C 824.97 159.98 826.17 159.85 827.41 159.72 C 827.57 163.04 827.18 166.43 827.88 169.70 C 828.80 170.50 829.93 171.02 831.00 171.63 C 831.44 172.45 831.87 173.27 832.32 174.11 C 830.74 175.23 829.11 176.28 827.41 177.20 C 824.88 178.34 822.25 179.68 819.41 179.59 C 815.16 175.86 810.18 172.37 808.30 166.75 C 806.44 168.58 805.32 170.93 805.00 173.51 C 803.37 173.96 801.74 174.41 800.08 174.72 C 797.15 173.45 794.21 172.17 791.24 171.01 C 786.35 174.14 778.93 174.99 774.59 170.47 C 773.34 169.41 772.01 168.43 770.61 167.58 C 770.00 163.12 768.53 158.57 769.96 154.11 Z" />
</g>
<g id="#9aafb8ff">
<path fill="#9aafb8" opacity="1.00" d=" M 769.80 167.07 L 770.61 167.58 C 772.01 168.43 773.34 169.41 774.59 170.47 C 778.93 174.99 786.35 174.14 791.24 171.01 C 794.21 172.17 797.15 173.45 800.08 174.72 C 798.53 174.66 796.98 174.46 795.45 174.29 C 795.69 175.27 795.96 176.25 796.25 177.23 C 794.96 179.00 793.79 180.84 792.79 182.78 C 792.18 181.96 791.60 181.14 791.03 180.31 C 789.40 180.86 787.78 181.41 786.16 181.96 C 780.84 176.83 773.20 173.99 769.80 167.07 Z" />
</g>
<g id="#7f98a4ff">
<path fill="#7f98a4" opacity="1.00" d=" M 805.00 173.51 C 805.32 170.93 806.44 168.58 808.30 166.75 C 810.18 172.37 815.16 175.86 819.41 179.59 C 822.25 179.68 824.88 178.34 827.41 177.20 C 827.41 178.11 827.43 179.04 827.46 179.96 C 825.10 180.62 822.75 181.32 820.35 181.82 C 819.98 181.79 819.22 181.73 818.85 181.70 C 816.75 182.31 814.93 183.55 813.08 184.66 C 815.04 184.59 817.01 184.50 818.99 184.40 C 818.82 184.86 818.49 185.78 818.32 186.24 C 817.39 186.53 816.48 186.81 815.58 187.10 C 815.87 187.83 816.16 188.55 816.47 189.28 C 814.60 188.98 812.74 188.68 810.89 188.38 C 810.72 186.67 810.55 184.95 810.39 183.23 C 809.38 183.23 808.38 183.21 807.39 183.05 C 806.55 184.74 806.42 187.71 803.94 187.67 C 800.72 187.68 797.70 186.33 794.68 185.39 C 794.04 184.52 793.41 183.65 792.79 182.78 C 793.79 180.84 794.96 179.00 796.25 177.23 C 795.96 176.25 795.69 175.27 795.45 174.29 C 796.98 174.46 798.53 174.66 800.08 174.72 C 801.74 174.41 803.37 173.96 805.00 173.51 Z" />
</g>
<g id="#a6b9c2ff">
<path fill="#a6b9c2" opacity="1.00" d=" M 813.08 184.66 C 814.93 183.55 816.75 182.31 818.85 181.70 C 821.02 183.97 826.29 186.09 824.03 189.91 C 823.00 193.29 819.15 192.32 816.49 192.53 C 812.56 192.35 808.94 194.32 805.06 194.33 C 801.23 191.53 798.19 187.51 793.36 186.26 C 793.69 186.04 794.35 185.61 794.68 185.39 C 797.70 186.33 800.72 187.68 803.94 187.67 C 806.42 187.71 806.55 184.74 807.39 183.05 C 808.38 183.21 809.38 183.23 810.39 183.23 C 810.55 184.95 810.72 186.67 810.89 188.38 C 812.74 188.68 814.60 188.98 816.47 189.28 C 816.16 188.55 815.87 187.83 815.58 187.10 C 816.48 186.81 817.39 186.53 818.32 186.24 C 818.49 185.78 818.82 184.86 818.99 184.40 C 817.01 184.50 815.04 184.59 813.08 184.66 Z" />
</g>
</svg>
